<?xml version="1.0" encoding="UTF-8"?>
<svg version="1.1" xmlns="http://www.w3.org/2000/svg" width="1024" height="1024">
<path d="M0 0 C337.92 0 675.84 0 1024 0 C1024 337.92 1024 675.84 1024 1024 C686.08 1024 348.16 1024 0 1024 C0 686.08 0 348.16 0 0 Z " fill="#E6E6E6" transform="translate(0,0)"/>
<path d="M0 0 C23.76 0 47.52 0 72 0 C72 5.28 72 10.56 72 16 C82.23 16 92.46 16 103 16 C103.28076167 32.97939595 103.28076167 32.97939595 103.34179688 40.234375 C103.38359503 45.1792478 103.43296063 50.1232107 103.52807617 55.06738281 C103.60430839 59.05508233 103.64602509 63.04180598 103.6641407 67.03017807 C103.67704463 68.54930864 103.70224511 70.06838757 103.7401104 71.58710098 C104.02560657 83.51563658 104.02560657 83.51563658 101.46028137 87.22843933 C99.70843491 88.73278431 97.9977129 89.85691002 96 91 C87.51407361 100.5935631 84.92124621 113.21542694 85.484375 125.70703125 C86.38942465 135.81113355 91.20819226 145.55692302 98 153 C98.78375 153.86625 99.5675 154.7325 100.375 155.625 C110.46837118 164.75709773 120.97265545 169.25810316 134 173 C134 181.91 134 190.82 134 200 C126.27594588 200.1685759 118.5586865 200.32869902 110.83438873 200.41400146 C107.23635346 200.45596473 103.63986629 200.51186344 100.04272461 200.60351562 C96.56716675 200.69149907 93.09309345 200.73848829 89.61650658 200.75901794 C87.66826168 200.78063982 85.72060105 200.84292066 83.77326965 200.90637207 C73.79100793 200.91131499 67.8653904 197.7308885 60 192 C57.08420878 189.99116964 54.16177558 187.99604342 51.21875 186.02734375 C49.29194287 184.73839447 47.38846626 183.4139968 45.5078125 182.05859375 C42.64019416 180.18994082 40.31811121 178.85039914 37 178 C30.65791971 179.51044128 26.01433257 183.95075257 21.1640625 188.0859375 C-1.90759437 206.74316183 -34.12963434 201.26483853 -62 200 C-62 190.76 -62 181.52 -62 172 C-57.05 171.01 -57.05 171.01 -52 170 C-38.82168742 165.67513166 -26.5702361 158.28313364 -20.05126953 145.6875 C-18.63425562 142.81911127 -17.29349488 139.92609516 -16 137 C-15.61457031 136.25234375 -15.22914063 135.5046875 -14.83203125 134.734375 C-11.67422182 124.35659753 -12.60160475 109.9656866 -17.52734375 100.40234375 C-18.01332031 99.60957031 -18.49929688 98.81679688 -19 98 C-19.65162109 96.88818359 -19.65162109 96.88818359 -20.31640625 95.75390625 C-26.40538162 86.57707443 -37.21970035 81.5757323 -46.625 76.4375 C-55.10575055 71.74951209 -63.52473293 66.97913613 -71.875 62.0625 C-80.42888498 57.03300801 -89.05989303 52.16503436 -97.75 47.375 C-108.20977173 41.60137822 -118.53197104 35.65069611 -128.71435547 29.40087891 C-131.06571497 27.95972308 -133.42518168 26.53246381 -135.78515625 25.10546875 C-137.27395139 24.19615335 -138.76225728 23.28603627 -140.25 22.375 C-140.93666748 21.96080811 -141.62333496 21.54661621 -142.33081055 21.11987305 C-143.92243712 20.13467923 -145.46731265 19.07459364 -147 18 C-147 17.34 -147 16.68 -147 16 C-111.03 16 -75.06 16 -38 16 C-37.505 25.405 -37.505 25.405 -37 35 C-34.36 36.98 -31.72 38.96 -29 41 C-29 32.75 -29 24.5 -29 16 C-19.43 16 -9.86 16 0 16 C0 10.72 0 5.44 0 0 Z " fill="#020202" transform="translate(476,404)"/>
<path d="M0 0 C15.51 0 31.02 0 47 0 C47.495 7.425 47.495 7.425 48 15 C52.57758769 20.07900829 56.5061286 20.25483579 63.18087769 20.60559082 C66.10573436 20.64521283 69.02783535 20.61290458 71.95263672 20.58007812 C73.56991256 20.58034507 75.18718937 20.58288306 76.80445862 20.58750916 C80.27762586 20.59289929 83.75028357 20.58291508 87.22338486 20.5610199 C92.73189643 20.52700382 98.23998204 20.53127147 103.74856567 20.5411377 C116.44846654 20.55809943 129.14814863 20.52548551 141.84799957 20.49221039 C153.46649079 20.46224973 165.08474066 20.44313731 176.70326626 20.46387625 C182.16120127 20.47219844 187.61835837 20.45672199 193.07618213 20.42208099 C196.49798616 20.40544101 199.91954664 20.40986886 203.34136772 20.41952705 C204.907693 20.41978344 206.47404985 20.41171825 208.04027367 20.39388847 C219.74037914 20.26736915 229.88866793 22.39262727 241 26 C242.08704161 26.34623665 243.17408321 26.6924733 244.29406548 27.04920197 C263.64162716 33.34657438 281.46999595 42.15791325 298 54 C298.89074219 54.63550781 299.78148437 55.27101563 300.69921875 55.92578125 C302.49811994 57.24120813 304.25633583 58.61218566 306 60 C306 60.33 306 60.66 306 61 C304.08752519 60.99943446 304.08752519 60.99943446 302.13641453 60.9988575 C271.85625535 60.99124024 241.57629488 61.01453656 211.29620266 61.07579029 C207.56750468 61.08330614 203.83880623 61.09056167 200.11010742 61.09765625 C199.36780514 61.099073 198.62550285 61.10048975 197.86070656 61.10194944 C185.84872356 61.12425491 173.8368265 61.12548146 161.82482857 61.11888863 C149.49514152 61.11259175 137.16563492 61.12901543 124.83600229 61.16643608 C117.23069668 61.18880505 109.6258025 61.19354965 102.02048343 61.17559664 C96.18415266 61.16372008 90.34819513 61.18348806 84.51192856 61.21495247 C82.12107326 61.22291478 79.73015855 61.22066965 77.33932686 61.20739174 C74.07053756 61.1907746 70.80394718 61.21112417 67.53529358 61.24050903 C66.59266303 61.22692293 65.65003247 61.21333683 64.67883736 61.19933903 C57.4350438 61.32559156 53.20678699 62.81190113 48 68 C47.67 72.95 47.34 77.9 47 83 C31.49 83 15.98 83 0 83 C0 55.61 0 28.22 0 0 Z " fill="#020202" transform="translate(377,319)"/>
<path d="M0 0 C34.32 0 68.64 0 104 0 C100.0735399 19.63230048 81.84862451 37.62597503 65.83984375 48.54296875 C45.13173486 62.11987874 24.8102949 66 0 66 C0 44.22 0 22.44 0 0 Z " fill="#020202" transform="translate(590,420)"/>
<path d="M0 0 C5.40123442 4.20860517 7.89848608 9.35952073 10.02734375 15.74609375 C10.31433371 19.76197391 10.30516559 23.78361481 10.33984375 27.80859375 C10.36884766 28.90365234 10.39785156 29.99871094 10.42773438 31.12695312 C10.502261 40.75235284 8.51877091 49.16019797 1.69140625 56.2734375 C-4.8141996 62.03074597 -11.62196571 62.49861946 -20.0546875 62.12109375 C-28.48522526 61.31418286 -33.88723771 58.64811265 -39.5 52.33203125 C-43.74758465 44.87340781 -44.45340588 37.11418929 -44.34765625 28.68359375 C-44.35925781 27.75482422 -44.37085938 26.82605469 -44.3828125 25.86914062 C-44.34826101 17.66316196 -42.69492249 9.95782998 -37.62890625 3.31640625 C-27.78999709 -6.01199347 -11.27633618 -7.16773052 0 0 Z " fill="#070707" transform="translate(583.97265625,643.25390625)"/>
<path d="M0 0 C5.259375 -0.0825 10.51875 -0.165 15.9375 -0.25 C17.578396 -0.28641602 19.21929199 -0.32283203 20.90991211 -0.36035156 C29.27702185 -0.4237969 36.96027848 -0.43313203 43.56591797 5.37744141 C48.53184263 10.79947449 49.41304099 16.52927727 49.25390625 23.60546875 C48.6799737 29.01809416 45.59171089 33.08176994 42 37 C39.31591712 38.70805274 38.23830467 39 35 39 C35.72703125 40.08269165 35.72703125 40.08269165 36.46875 41.18725586 C38.2596509 43.85660226 40.04849545 46.52731112 41.8359375 49.19897461 C42.61115167 50.35675567 43.38719196 51.51398401 44.1640625 52.6706543 C45.27819484 54.32977357 46.38914867 55.99102591 47.5 57.65234375 C48.1703125 58.65257568 48.840625 59.65280762 49.53125 60.68334961 C51 63 51 63 51 64 C45.60586155 65.30871909 40.22542558 66.3565187 35 64 C29.26327365 58.2770473 25.21986573 50.38527416 22 43 C22 42.34 22 41.68 22 41 C19.36 41 16.72 41 14 41 C14 48.59 14 56.18 14 64 C9.38 64 4.76 64 0 64 C0 42.88 0 21.76 0 0 Z " fill="#080808" transform="translate(605,640)"/>
<path d="M0 0 C5.94 0 11.88 0 18 0 C30.97669765 37.83731842 30.97669765 37.83731842 35.25 50.5625 C35.52465088 51.37356201 35.79930176 52.18462402 36.08227539 53.02026367 C37.30843249 56.6923132 38.2375573 60.18778648 39 64 C34.38 64 29.76 64 25 64 C21 54.375 21 54.375 21 51 C13.41 51.33 5.82 51.66 -2 52 C-3.32 55.96 -4.64 59.92 -6 64 C-10.95 64 -15.9 64 -21 64 C-14.09803541 42.63326114 -7.14933019 21.28550579 0 0 Z " fill="#080808" transform="translate(327,640)"/>
<path d="M0 0 C0.66022156 0.00141495 1.32044312 0.0028299 2.00067139 0.00428772 C4.09945294 0.0098638 6.19812595 0.02241178 8.296875 0.03515625 C9.72395679 0.04017435 11.15104025 0.04473671 12.578125 0.04882812 C16.06778332 0.05897248 19.55720832 0.07855224 23.046875 0.09765625 C23.046875 4.38765625 23.046875 8.67765625 23.046875 13.09765625 C20.10201172 13.11892578 20.10201172 13.11892578 17.09765625 13.140625 C14.51820561 13.1875241 11.93877924 13.23577149 9.359375 13.28515625 C8.06580078 13.29095703 6.77222656 13.29675781 5.43945312 13.30273438 C4.19228516 13.33173828 2.94511719 13.36074219 1.66015625 13.390625 C0.51329346 13.40633545 -0.63356934 13.4220459 -1.81518555 13.43823242 C-5.85977983 14.28818567 -7.34538638 15.96525602 -9.953125 19.09765625 C-13.50959391 25.60707207 -13.00464998 34.91429199 -11.23046875 41.97265625 C-9.32893091 46.65336478 -7.63659374 48.8940579 -2.953125 51.09765625 C0.39185899 51.66920064 0.39185899 51.66920064 3.859375 51.78515625 C5.90125 51.88828125 7.943125 51.99140625 10.046875 52.09765625 C10.046875 47.80765625 10.046875 43.51765625 10.046875 39.09765625 C7.076875 39.09765625 4.106875 39.09765625 1.046875 39.09765625 C1.046875 35.13765625 1.046875 31.17765625 1.046875 27.09765625 C8.306875 27.09765625 15.566875 27.09765625 23.046875 27.09765625 C23.046875 39.30765625 23.046875 51.51765625 23.046875 64.09765625 C17.9525 64.20078125 12.858125 64.30390625 7.609375 64.41015625 C5.22634155 64.47843628 5.22634155 64.47843628 2.79516602 64.5480957 C-6.50416195 64.63904124 -13.16090956 63.77320727 -20.0390625 57.0625 C-26.8600187 46.33499616 -28.09040635 34.5445688 -26.953125 22.09765625 C-25.31955963 14.7817425 -22.51880929 8.2854088 -16.21875 3.88671875 C-10.61118036 0.50779858 -6.46691681 -0.02740219 0 0 Z " fill="#080808" transform="translate(688.953125,639.90234375)"/>
<path d="M0 0 C4.95 0 9.9 0 15 0 C15.33 8.91 15.66 17.82 16 27 C17.44375 25.14375 18.8875 23.2875 20.375 21.375 C20.86838867 20.75197998 21.36177734 20.12895996 21.87011719 19.48706055 C24.25982113 16.43449611 26.41201543 13.39257905 28.328125 10.01953125 C33.82390538 0.65930992 33.82390538 0.65930992 38 -0.60595703 C42.74579476 -1.19812205 47.29532587 -0.73547015 52 0 C50.54817038 4.30788788 48.2438942 7.55197729 45.4375 11.0625 C44.54402691 12.20814314 43.65080371 13.35398121 42.7578125 14.5 C41.39012037 16.24087532 40.01789384 17.97761028 38.63574219 19.70703125 C37.35064355 21.31741164 36.08093044 22.93898006 34.8125 24.5625 C34.05582031 25.51253906 33.29914063 26.46257813 32.51953125 27.44140625 C30.77894383 29.78133397 30.77894383 29.78133397 31.22509766 31.89770508 C32.12801519 34.3473027 33.31821645 36.10190662 34.87890625 38.1953125 C35.46720215 38.98953613 36.05549805 39.78375977 36.66162109 40.60205078 C37.28891113 41.43462402 37.91620117 42.26719727 38.5625 43.125 C39.19494629 43.97433105 39.82739258 44.82366211 40.47900391 45.69873047 C44.4572258 51.01897859 48.50820891 56.26306433 52.7421875 61.3828125 C54 63 54 63 54 64 C47.96474102 65.17010123 41.91309235 66.127608 36 64 C30.66541524 59.65235011 27.11748389 53.53541499 23.68066406 47.65234375 C21.33761472 43.95465519 18.62651882 40.50202509 16 37 C15.67 45.91 15.34 54.82 15 64 C10.05 64 5.1 64 0 64 C0 42.88 0 21.76 0 0 Z " fill="#0C0C0C" transform="translate(429,640)"/>
<path d="M0 0 C14.52 0 29.04 0 44 0 C44 4.29 44 8.58 44 13 C34.1 13 24.2 13 14 13 C14 17.29 14 21.58 14 26 C22.25 26 30.5 26 39 26 C39 29.96 39 33.92 39 38 C30.75 38 22.5 38 14 38 C14 42.62 14 47.24 14 52 C23.9 52 33.8 52 44 52 C44 55.96 44 59.92 44 64 C29.48 64 14.96 64 0 64 C0 42.88 0 21.76 0 0 Z " fill="#0A0A0A" transform="translate(724,640)"/>
<path d="M0 0 C0.98608749 0.00424484 0.98608749 0.00424484 1.99209595 0.00857544 C4.07044483 0.01967803 6.14834616 0.04476264 8.2265625 0.0703125 C9.64452498 0.08035519 11.06249429 0.08947877 12.48046875 0.09765625 C15.93780679 0.1178746 19.39418985 0.157039 22.8515625 0.1953125 C22.8515625 4.4853125 22.8515625 8.7753125 22.8515625 13.1953125 C12.9515625 13.5253125 3.0515625 13.8553125 -7.1484375 14.1953125 C-8.82039416 20.55653719 -8.82039416 20.55653719 -6.98950195 23.06860352 C-4.84277604 24.38237359 -3.17556808 24.82211675 -0.69140625 25.22265625 C0.17419922 25.37541016 1.03980469 25.52816406 1.93164062 25.68554688 C3.74122057 25.98175403 5.55111429 26.27605113 7.36132812 26.56835938 C14.20665586 27.78113427 18.77241589 29.56902204 23.2265625 35.1953125 C26.10749921 40.82403339 25.85404344 47.58875387 24.19140625 53.5703125 C21.98585354 58.61157584 18.68177426 61.58960368 13.8515625 64.1953125 C10.92499318 64.61954554 8.62541762 64.78917664 5.73046875 64.68359375 C4.61332741 64.67298164 4.61332741 64.67298164 3.47361755 64.66215515 C1.11936444 64.63439984 -1.23241645 64.57170791 -3.5859375 64.5078125 C-5.19202268 64.48270476 -6.79814554 64.45989594 -8.40429688 64.43945312 C-12.31994768 64.38463664 -16.23377505 64.2985054 -20.1484375 64.1953125 C-20.1484375 60.2353125 -20.1484375 56.2753125 -20.1484375 52.1953125 C-19.31070801 52.17549316 -18.47297852 52.15567383 -17.60986328 52.13525391 C-14.50477916 52.05720638 -11.40009211 51.97051615 -8.29541016 51.87792969 C-6.28956779 51.82077214 -4.28344832 51.77362654 -2.27734375 51.7265625 C-0.39208984 51.66855469 -0.39208984 51.66855469 1.53125 51.609375 C2.69382324 51.5779541 3.85639648 51.5465332 5.05419922 51.51416016 C7.98812732 51.47373381 7.98812732 51.47373381 9.8515625 49.1953125 C10.26822917 45.6953125 10.26822917 45.6953125 9.8515625 42.1953125 C7.00524552 40.29776785 6.03744853 39.89524082 2.83203125 39.484375 C2.05666016 39.37351562 1.28128906 39.26265625 0.48242188 39.1484375 C-1.13395427 38.9313702 -2.75115289 38.72033391 -4.36914062 38.515625 C-10.79677716 37.57992274 -14.96117336 35.55992238 -19.4609375 30.6953125 C-23.01295646 25.43306219 -22.63138888 19.34847088 -22.1484375 13.1953125 C-20.41519172 7.99557516 -17.59416992 5.33347656 -13.1484375 2.1953125 C-8.63762516 0.34601548 -4.85580165 -0.04150258 0 0 Z " fill="#080808" transform="translate(393.1484375,639.8046875)"/>
<path d="M0 0 C14.52 0 29.04 0 44 0 C44 4.29 44 8.58 44 13 C34.1 13 24.2 13 14 13 C14 17.62 14 22.24 14 27 C21.92 27 29.84 27 38 27 C38 30.96 38 34.92 38 39 C30.08 39 22.16 39 14 39 C14 47.25 14 55.5 14 64 C9.38 64 4.76 64 0 64 C0 42.88 0 21.76 0 0 Z " fill="#090909" transform="translate(490,640)"/>
<path d="M0 0 C16.5 0 33 0 50 0 C50 3.96 50 7.92 50 12 C43.73 12 37.46 12 31 12 C31 29.16 31 46.32 31 64 C26.71 64 22.42 64 18 64 C18 46.84 18 29.68 18 12 C12.06 12 6.12 12 0 12 C0 8.04 0 4.08 0 0 Z " fill="#050505" transform="translate(257,640)"/>
<path d="M0 0 C3.42433798 1.31144859 4.59627076 2.3875132 6.6015625 5.4296875 C8.52682092 10.34501208 8.47566147 14.76840999 8.4375 20 C8.4674707 21.45792969 8.4674707 21.45792969 8.49804688 22.9453125 C8.49405972 28.79846075 8.04716136 32.44783256 4 37 C1.03662531 39.83790922 -0.92745796 40.39320586 -5 40.3125 C-5.845625 40.30863281 -6.69125 40.30476562 -7.5625 40.30078125 C-11.14672185 39.85849746 -13.18379678 39.0009229 -15.484375 36.1796875 C-19.7449583 28.42121791 -20.05967209 20.6628193 -19 12 C-17.5528386 7.4977201 -15.66589258 4.07461958 -12 1 C-8.30789552 -0.84605224 -4.03848091 -0.34397156 0 0 Z " fill="#E3E3E3" transform="translate(572,652)"/>
<path d="M0 0 C3.58875 -0.061875 3.58875 -0.061875 7.25 -0.125 C7.99668945 -0.14320801 8.74337891 -0.16141602 9.51269531 -0.18017578 C13.17846664 -0.21074031 15.97656697 -0.17399232 19 2 C21.50031654 5.75047482 21.53603554 7.55856266 21 12 C19.01617338 14.67469231 17.46795949 16.69391722 14.08911133 17.3984375 C11.92838488 17.4918853 9.84751603 17.43699343 7.6875 17.3125 C5.150625 17.209375 2.61375 17.10625 0 17 C0 11.39 0 5.78 0 0 Z " fill="#E0DEDF" transform="translate(619,652)"/>
<path d="M0 0 C0.66 0 1.32 0 2 0 C2.8175507 2.54013909 3.62915186 5.08193231 4.4375 7.625 C4.66759766 8.33785156 4.89769531 9.05070313 5.13476562 9.78515625 C5.35712891 10.48769531 5.57949219 11.19023438 5.80859375 11.9140625 C6.01282959 12.5529541 6.21706543 13.1918457 6.42749023 13.85009766 C7.13945004 16.52366611 7.5451506 19.27090362 8 22 C3.38 22 -1.24 22 -6 22 C-5.37798054 19.45757096 -4.75248241 16.91608125 -4.125 14.375 C-3.95097656 13.66214844 -3.77695312 12.94929687 -3.59765625 12.21484375 C-2.57145662 8.07203784 -1.41209271 4.03273322 0 0 Z " fill="#DBDBDA" transform="translate(335,656)"/>
<path d="M0 0 C3.65316671 1.24976756 4.78065836 1.67098753 7 5 C-20.39 5 -47.78 5 -76 5 C-76 4.67 -76 4.34 -76 4 C-50.92 4 -25.84 4 0 4 C0 2.68 0 1.36 0 0 Z " fill="#141414" transform="translate(676,375)"/>
<path d="M0 0 C0.66 0.99 1.32 1.98 2 3 C1.125 5.6875 1.125 5.6875 0 8 C-0.66 8 -1.32 8 -2 8 C-2.226875 8.7425 -2.45375 9.485 -2.6875 10.25 C-4.24407532 13.51139591 -6.08518854 14.92894975 -9 17 C-12 13.25 -12 13.25 -12 11 C-11.46890625 10.79246094 -10.9378125 10.58492187 -10.390625 10.37109375 C-4.71653672 7.89644576 -2.58975213 5.61112962 0 0 Z " fill="#DBDAD8" transform="translate(652,668)"/>
<path d="M0 0 C1.8125 1.9375 1.8125 1.9375 3 5 C2.74490201 8.13026498 2.14362635 11.07134841 1 14 C0.01 14.495 0.01 14.495 -1 15 C-1.67031719 13.0429132 -2.33614683 11.08428887 -3 9.125 C-3.37125 8.03445313 -3.7425 6.94390625 -4.125 5.8203125 C-5 3 -5 3 -5 1 C-3 0 -3 0 0 0 Z " fill="#DEDDDE" transform="translate(364,681)"/>
<path d="M0 0 C0.99 0.33 1.98 0.66 3 1 C3.49230769 7.4 3.49230769 7.4 1 10.4375 C0.01 11.2109375 0.01 11.2109375 -1 12 C-1.66 11.67 -2.32 11.34 -3 11 C-3 7.26446332 -2.82224473 2.82224473 0 0 Z " fill="#D3D1D2" transform="translate(637,656)"/>
<path d="M0 0 C0.66 0 1.32 0 2 0 C2.72945166 3.46489537 3 6.46423522 3 10 C1.68 10 0.36 10 -1 10 C-2.25 3.375 -2.25 3.375 0 0 Z " fill="#CDCBCB" transform="translate(386,653)"/>
<path d="M0 0 C1.921875 1.3828125 1.921875 1.3828125 2.53125 3.765625 C2.57765625 4.67054688 2.6240625 5.57546875 2.671875 6.5078125 C2.72859375 7.41789063 2.7853125 8.32796875 2.84375 9.265625 C2.86953125 9.96429687 2.8953125 10.66296875 2.921875 11.3828125 C0.32403625 8.8745544 -2.11504881 6.4255806 -4.078125 3.3828125 C-4.078125 2.3928125 -4.078125 1.4028125 -4.078125 0.3828125 C-2.078125 -0.6171875 -2.078125 -0.6171875 0 0 Z " fill="#E0E0E0" transform="translate(477.078125,688.6171875)"/>
<path d="M0 0 C3.465 1.485 3.465 1.485 7 3 C6.67 3.66 6.34 4.32 6 5 C3.125 5.125 3.125 5.125 0 5 C-0.66 4.34 -1.32 3.68 -2 3 C-1.34 2.01 -0.68 1.02 0 0 Z " fill="#DEDEDE" transform="translate(332,424)"/>
<path d="M0 0 C0.66 0.33 1.32 0.66 2 1 C2.6328125 3.06640625 2.6328125 3.06640625 3.125 5.5625 C3.29257812 6.38878906 3.46015625 7.21507812 3.6328125 8.06640625 C3.75398437 8.70449219 3.87515625 9.34257813 4 10 C3.34 10 2.68 10 2 10 C-0.17364926 7.18230651 -1.08677021 5.7809319 -0.6875 2.1875 C-0.460625 1.465625 -0.23375 0.74375 0 0 Z " fill="#D2D1D1" transform="translate(539,682)"/>
<path d="M0 0 C0.66 0 1.32 0 2 0 C2.33 1.65 2.66 3.3 3 5 C0.525 6.485 0.525 6.485 -2 8 C-1.34 5.36 -0.68 2.72 0 0 Z " fill="#B6B5B4" transform="translate(335,656)"/>
<path d="M0 0 C1.43088528 2.86177057 0.59991697 4.93375773 0 8 C-2 6.1875 -2 6.1875 -4 4 C-4 3.01 -4 2.02 -4 1 C-2.68 0.67 -1.36 0.34 0 0 Z " fill="#DEDCDD" transform="translate(468,676)"/>
<path d="M0 0 C0.99 0.33 1.98 0.66 3 1 C3.33 2.98 3.66 4.96 4 7 C2.02 7 0.04 7 -2 7 C-1.2265625 6.38125 -1.2265625 6.38125 -0.4375 5.75 C0.2740625 4.88375 0.2740625 4.88375 1 4 C0.77242269 1.83700789 0.77242269 1.83700789 0 0 Z " fill="#E4E4E4" transform="translate(339,671)"/>
<path d="M0 0 C2.625 1.4375 2.625 1.4375 5 3 C4.01 3.495 4.01 3.495 3 4 C2.67 4.66 2.34 5.32 2 6 C1.01 5.67 0.02 5.34 -1 5 C-1.6875 2.9375 -1.6875 2.9375 -2 1 C-1.34 0.67 -0.68 0.34 0 0 Z " fill="#DBDADA" transform="translate(371,669)"/>
<path d="M0 0 C1.32 0.99 2.64 1.98 4 3 C2.68 3.33 1.36 3.66 0 4 C-0.33 3.01 -0.66 2.02 -1 1 C-0.67 0.67 -0.34 0.34 0 0 Z M-4 3 C-2.02 3.495 -2.02 3.495 0 4 C-0.99 4.66 -1.98 5.32 -3 6 C-3.66 5.67 -4.32 5.34 -5 5 C-4.67 4.34 -4.34 3.68 -4 3 Z " fill="#DEDCDD" transform="translate(376,673)"/>
<path d="M0 0 C2.31 0 4.62 0 7 0 C7 1.32 7 2.64 7 4 C4.69 3.34 2.38 2.68 0 2 C0 1.34 0 0.68 0 0 Z " fill="#D2D2D2" transform="translate(632,349)"/>
<path d="M0 0 C0.66 1.32 1.32 2.64 2 4 C0.68 5.32 -0.64 6.64 -2 8 C-2.66 7.67 -3.32 7.34 -4 7 C-2.68 4.69 -1.36 2.38 0 0 Z " fill="#D3D3D3" transform="translate(689,431)"/>
</svg>
